<?xml version="1.0" encoding="utf-8"?>
<!-- Generator: Adobe Illustrator 16.0.0, SVG Export Plug-In . SVG Version: 6.00 Build 0)  -->
<!DOCTYPE svg PUBLIC "-//W3C//DTD SVG 1.1//EN" "http://www.w3.org/Graphics/SVG/1.1/DTD/svg11.dtd">
<svg version="1.1" id="Layer_1" xmlns="http://www.w3.org/2000/svg" xmlns:xlink="http://www.w3.org/1999/xlink" x="0px" y="0px"
	 width="133.887px" height="120px" viewBox="0 0 133.887 120" enable-background="new 0 0 133.887 120" xml:space="preserve">
<path d="M16.598,77.865l31.055,23.466l-0.067-49.059L16.598,77.865z M80.507,120c-0.937,0-1.875-0.177-2.755-0.539
	c-2.348-0.966-3.854-3.068-3.854-5.38l-0.019-57.023l13.214-0.003l0.015,44.127l31.167-24.005l-16.557-19.82
	c-1.968-2.354-1.705-5.649,0.609-7.734l15.601-13.991L93.792,14.116L60.785,41.374l0.097,72.694c0.003,2.31-1.485,4.403-3.815,5.378
	c-2.334,0.972-5.084,0.646-7.051-0.841L2.348,82.591c-1.449-1.098-2.303-2.698-2.346-4.399c-0.039-1.699,0.736-3.332,2.129-4.483
	l45.434-37.52l-0.031-22.407L8.537,23.752L4.914,12.36L52.317,0.238c1.99-0.508,4.135-0.149,5.792,0.966
	c1.654,1.119,2.625,2.865,2.627,4.722l0.028,19.363L89.491,1.566c2.602-2.147,6.628-2.079,9.134,0.155l33.312,29.699
	c1.244,1.106,1.947,2.614,1.95,4.19c0.003,1.57-0.694,3.081-1.932,4.19l-16.229,14.565l16.826,20.146
	c2.082,2.494,1.651,6.011-0.987,8.039L84.811,118.57C83.587,119.509,82.056,120,80.507,120"/>
</svg>
